<?xml version="1.0" encoding="UTF-8"?>
<svg id="Layer_2" data-name="Layer 2" xmlns="http://www.w3.org/2000/svg" viewBox="0 0 32 32">
  <defs>
    <style>
      .cls-1 {
        fill: #111112;
      }
    </style>
  </defs>
  <g id="Layer_1-2" data-name="Layer 1">
    <g>
      <path class="cls-1" d="m15.52,13.08c0,.71-.23,1.27-.69,1.69-.46.42-1.09.63-1.9.63h-2.65v-4.67h2.65c.81,0,1.44.21,1.9.64.46.42.69,1,.69,1.72Z"/>
      <path class="cls-1" d="m23.21,12.74c0,.64-.21,1.15-.64,1.53-.42.38-1,.57-1.74.57h-2.31v-4.2h2.25c.76,0,1.36.19,1.79.56.43.38.65.89.65,1.54Z"/>
      <path class="cls-1" d="m23.63,19.19c0,.67-.23,1.19-.69,1.58-.46.39-1.07.58-1.84.58h-2.59v-4.37h2.68c.76,0,1.36.2,1.79.61.43.4.65.94.65,1.6Z"/>
      <path class="cls-1" d="m25.4,0H6.6C2.95,0,0,2.95,0,6.6v18.8c0,3.64,2.95,6.6,6.6,6.6h25.4V6.6c0-3.64-2.95-6.6-6.6-6.6Zm-.48,22.36c-.86.78-1.99,1.17-3.38,1.17h-5.56v-6.56c-.75.45-1.64.67-2.68.67h-3.04v5.88h-2.55v-15.05h13.44c1.42,0,2.53.38,3.35,1.13.82.75,1.23,1.73,1.23,2.93,0,.78-.21,1.45-.62,2.03-.41.57-.95.98-1.61,1.22.81.21,1.46.64,1.95,1.3.5.65.74,1.42.74,2.29,0,1.22-.43,2.21-1.3,2.99Z"/>
    </g>
  </g>
</svg>