<svg width="683" height="145" viewBox="0 0 683 145" fill="none" xmlns="http://www.w3.org/2000/svg">
<g clip-path="url(#clip0_802_4)">
<path d="M228.443 44.744C224.439 40.8295 219.199 38.8745 212.728 38.8745H187.444V107.088H198.979V80.4399H212.728C219.199 80.4399 224.439 78.4982 228.443 74.6147C232.447 70.7357 234.454 65.7484 234.454 59.6572C234.454 53.566 232.447 48.6541 228.443 44.744ZM219.602 67.4019C217.516 69.2949 214.65 70.2392 210.996 70.2392H198.979V49.0708H210.996C214.65 49.0708 217.516 50.0328 219.602 51.9568C221.684 53.8808 222.725 56.4786 222.725 59.7503C222.725 63.022 221.684 65.509 219.602 67.4019Z" fill="#111112"/>
<path d="M244.354 60.2335V107.088H255.41V60.2335H244.354ZM255.024 38.5863C253.616 37.1766 251.884 36.4673 249.833 36.4673C247.782 36.4673 246.148 37.1899 244.739 38.6351C243.326 40.0759 242.622 41.7915 242.622 43.782C242.622 45.7725 243.326 47.4704 244.739 48.8802C246.148 50.2899 247.844 50.9948 249.833 50.9948C251.822 50.9948 253.616 50.2899 255.024 48.8802C256.433 47.4704 257.142 45.7681 257.142 43.782C257.142 41.796 256.433 39.9961 255.024 38.5863Z" fill="#111112"/>
<path d="M293.959 83.2284L310.396 60.2335H297.706L287.518 75.2442C287.323 74.9206 285.64 72.4691 282.469 67.8807C279.297 63.2968 277.552 60.7478 277.229 60.2335H263.963L280.693 83.419L263.675 107.088H276.463C276.715 106.64 277.645 105.243 279.249 102.903C280.852 100.562 282.5 98.1238 284.201 95.5925C285.897 93.0567 286.845 91.6647 287.036 91.4075L297.901 107.088H310.972L293.959 83.2284Z" fill="#111112"/>
<path d="M359.709 83.1308C359.709 75.692 357.693 69.7737 353.654 65.3804C349.619 60.9872 344.007 58.7883 336.831 58.7883C330.678 58.7883 325.345 61.098 320.827 65.7174C316.305 70.3367 314.046 76.2373 314.046 83.419C314.046 91.0529 316.371 97.1485 321.018 101.701C325.664 106.254 331.321 108.533 337.987 108.533C343.369 108.533 347.9 107.136 351.59 104.348C355.271 101.555 357.786 98.013 359.133 93.7172L349.712 90.7337C347.918 96.1865 344.007 98.9085 337.987 98.9085C334.523 98.9085 331.56 97.7559 329.093 95.4462C326.625 93.1365 325.328 90.2195 325.199 86.6907H359.421C359.616 86.305 359.709 85.1213 359.709 83.1308ZM325.487 78.5115C325.678 75.7585 326.803 73.3335 328.853 71.25C330.904 69.1664 333.593 68.1246 336.928 68.1246C340.578 68.1246 343.382 69.1176 345.34 71.1037C347.293 73.0942 348.334 75.5634 348.463 78.5115H325.487Z" fill="#111112"/>
<path d="M370.38 37.4293V107.088H381.533V37.4293H370.38Z" fill="#111112"/>
<path d="M439.882 77.842C437.641 74.8896 434.691 72.9345 431.041 71.9725C434.053 70.882 436.485 69.0378 438.345 66.4399C440.205 63.8421 441.136 60.7788 441.136 57.25C441.136 51.7972 439.275 47.3729 435.559 43.9727C431.838 40.5724 426.775 38.8745 420.37 38.8745H396.912V107.088H422.098C428.379 107.088 433.473 105.328 437.384 101.799C441.291 98.2701 443.248 93.7482 443.248 88.229C443.248 84.2568 442.128 80.7901 439.882 77.842ZM408.353 48.6851H418.541C422.005 48.6851 424.711 49.5363 426.665 51.2386C428.618 52.9365 429.597 55.2639 429.597 58.212C429.597 61.16 428.636 63.4077 426.713 65.141C424.791 66.87 422.164 67.7389 418.829 67.7389H408.353V48.6851ZM428.396 94.6304C426.31 96.3948 423.542 97.277 420.082 97.277H408.353V77.4564H420.463C423.927 77.4564 426.634 78.3696 428.587 80.1961C430.54 82.0269 431.519 84.4475 431.519 87.462C431.519 90.4766 430.478 92.866 428.396 94.6304Z" fill="#111112"/>
<path d="M478.432 59.6572C475.358 59.6572 472.602 60.3754 470.166 61.8206C467.73 63.2658 465.967 65.2341 464.878 67.7389V60.2335H454.017V107.088H465.165V84.7667C465.165 75.5945 469.365 71.0106 477.758 71.0106C478.914 71.0106 480.132 71.1037 481.413 71.2987V59.9454C480.451 59.7503 479.459 59.6572 478.432 59.6572Z" fill="#111112"/>
<path d="M532.267 83.1308C532.267 75.692 530.247 69.7737 526.211 65.3804C522.172 60.9872 516.564 58.7883 509.389 58.7883C503.236 58.7883 497.899 61.098 493.381 65.7174C488.863 70.3367 486.604 76.2373 486.604 83.419C486.604 91.0529 488.925 97.1485 493.575 101.701C498.222 106.254 503.874 108.533 510.54 108.533C515.926 108.533 520.458 107.136 524.143 104.348C527.828 101.555 530.344 98.013 531.691 93.7172L522.269 90.7337C520.475 96.1865 516.564 98.9085 510.54 98.9085C507.081 98.9085 504.113 97.7559 501.65 95.4462C499.183 93.1365 497.885 90.2195 497.757 86.6907H531.979C532.169 86.305 532.267 85.1213 532.267 83.1308ZM498.045 78.5115C498.235 75.7585 499.356 73.3335 501.407 71.25C503.458 69.1664 506.151 68.1246 509.482 68.1246C513.136 68.1246 515.94 69.1176 517.897 71.1037C519.851 73.0942 520.892 75.5634 521.02 78.5115H498.045Z" fill="#111112"/>
<path d="M584.945 83.1308C584.945 75.692 582.925 69.7737 578.89 65.3804C574.851 60.9872 569.243 58.7883 562.067 58.7883C555.915 58.7883 550.577 61.098 546.059 65.7174C541.541 70.3367 539.282 76.2373 539.282 83.419C539.282 91.0529 541.603 97.1485 546.254 101.701C550.901 106.254 556.553 108.533 563.219 108.533C568.605 108.533 573.136 107.136 576.822 104.348C580.507 101.555 583.023 98.013 584.369 93.7172L574.948 90.7337C573.154 96.1865 569.243 98.9085 563.219 98.9085C559.759 98.9085 556.796 97.7559 554.329 95.4462C551.862 93.1365 550.564 90.2195 550.436 86.6907H584.657C584.848 86.305 584.945 85.1213 584.945 83.1308ZM550.723 78.5115C550.914 75.7585 552.035 73.3335 554.09 71.25C556.136 69.1664 558.829 68.1246 562.165 68.1246C565.815 68.1246 568.618 69.1176 570.576 71.1037C572.53 73.0942 573.57 75.5634 573.699 78.5115H550.723Z" fill="#111112"/>
<path d="M605.804 97.2771L629.838 69.6629V60.2335H592.538V70.0486H615.806L592.06 97.3702V107.088H630.321V97.2771H605.804Z" fill="#111112"/>
<path d="M683 83.1308C683 75.692 680.98 69.7737 676.945 65.3804C672.905 60.9872 667.298 58.7883 660.122 58.7883C653.969 58.7883 648.632 61.098 644.114 65.7174C639.596 70.3367 637.337 76.2373 637.337 83.419C637.337 91.0529 639.658 97.1485 644.309 101.701C648.955 106.254 654.607 108.533 661.274 108.533C666.66 108.533 671.191 107.136 674.876 104.348C678.562 101.555 681.078 98.013 682.424 93.7172L673.003 90.7337C671.209 96.1865 667.298 98.9085 661.274 98.9085C657.814 98.9085 654.846 97.7559 652.384 95.4462C649.912 93.1365 648.619 90.2195 648.49 86.6907H682.712C682.902 86.305 683 85.1213 683 83.1308ZM648.778 78.5115C648.969 75.7585 650.089 73.3335 652.14 71.25C654.191 69.1664 656.884 68.1246 660.215 68.1246C663.869 68.1246 666.673 69.1176 668.626 71.1037C670.584 73.0942 671.625 75.5634 671.754 78.5115H648.778Z" fill="#111112"/>
<path d="M70.251 59.2714C70.251 62.4766 69.2057 65.0301 67.1239 66.9186C65.042 68.8116 62.1762 69.7559 58.5219 69.7559H46.5049V48.5919H58.5219C62.1762 48.5919 65.042 49.5539 67.1239 51.4779C69.2057 53.4019 70.251 55.9997 70.251 59.2714Z" fill="#111112"/>
<path d="M105.066 57.7332C105.066 60.6192 104.101 62.9244 102.178 64.6578C100.256 66.3912 97.6293 67.2556 94.2984 67.2556H83.8184V48.2063H94.0105C97.4699 48.2063 100.176 49.0575 102.134 50.7554C104.087 52.4577 105.066 54.7807 105.066 57.7332Z" fill="#111112"/>
<path d="M106.989 86.9787C106.989 89.9932 105.943 92.3827 103.862 94.1471C101.78 95.9115 99.0069 96.7937 95.5475 96.7937H83.8184V76.973H95.9328C99.3922 76.973 102.099 77.8863 104.056 79.7172C106.01 81.5436 106.989 83.9641 106.989 86.9787Z" fill="#111112"/>
<path d="M115.01 0H29.8721C13.3724 0 0 13.3837 0 29.8973V115.103C0 131.616 13.3724 145 29.8721 145H144.882V29.8973C144.882 13.3837 131.505 0 115.01 0ZM112.849 101.316C108.942 104.844 103.843 106.609 97.567 106.609H72.3768V76.9021C68.9839 78.9414 64.9398 79.9566 60.2535 79.9566H46.5046V106.609H34.9703V38.3912H95.8351C102.244 38.3912 107.307 40.0936 111.024 43.4894C114.74 46.894 116.6 51.3183 116.6 56.7711C116.6 60.2955 115.67 63.3588 113.81 65.9566C111.954 68.5545 109.518 70.3987 106.506 71.4892C110.16 72.4512 113.105 74.4107 115.351 77.3588C117.592 80.3112 118.713 83.7735 118.713 87.7501C118.713 93.265 116.76 97.7868 112.849 101.316Z" fill="#111112"/>
</g>
<defs>
<clipPath id="clip0_802_4">
<rect width="683" height="145" fill="white"/>
</clipPath>
</defs>
</svg>
