<?xml version="1.0" encoding="UTF-8"?>
<svg xmlns="http://www.w3.org/2000/svg" xmlns:xlink="http://www.w3.org/1999/xlink" width="143px" height="30px" viewBox="0 0 141 30" version="1.1">
<g id="surface1">
<path style=" stroke:none;fill-rule:nonzero;fill:rgb(6.666667%,6.666667%,7.058824%);fill-opacity:1;" d="M 47.160156 9.257812 C 46.332031 8.449219 45.25 8.042969 43.917969 8.042969 L 38.695312 8.042969 L 38.695312 22.15625 L 41.078125 22.15625 L 41.078125 16.644531 L 43.917969 16.644531 C 45.25 16.644531 46.332031 16.242188 47.160156 15.4375 C 47.988281 14.636719 48.402344 13.601562 48.402344 12.34375 C 48.402344 11.082031 47.988281 10.066406 47.160156 9.257812 Z M 45.335938 13.945312 C 44.90625 14.335938 44.3125 14.53125 43.558594 14.53125 L 41.078125 14.53125 L 41.078125 10.152344 L 43.558594 10.152344 C 44.3125 10.152344 44.90625 10.351562 45.335938 10.75 C 45.765625 11.148438 45.980469 11.683594 45.980469 12.363281 C 45.980469 13.039062 45.765625 13.554688 45.335938 13.945312 Z M 45.335938 13.945312 "/>
<path style=" stroke:none;fill-rule:nonzero;fill:rgb(6.666667%,6.666667%,7.058824%);fill-opacity:1;" d="M 50.445312 12.460938 L 50.445312 22.15625 L 52.726562 22.15625 L 52.726562 12.460938 Z M 52.648438 7.984375 C 52.355469 7.691406 52 7.546875 51.574219 7.546875 C 51.152344 7.546875 50.816406 7.695312 50.523438 7.992188 C 50.234375 8.292969 50.085938 8.648438 50.085938 9.058594 C 50.085938 9.46875 50.234375 9.820312 50.523438 10.113281 C 50.816406 10.40625 51.164062 10.550781 51.574219 10.550781 C 51.988281 10.550781 52.355469 10.40625 52.648438 10.113281 C 52.9375 9.820312 53.085938 9.46875 53.085938 9.058594 C 53.085938 8.648438 52.9375 8.273438 52.648438 7.984375 Z M 52.648438 7.984375 "/>
<path style=" stroke:none;fill-rule:nonzero;fill:rgb(6.666667%,6.666667%,7.058824%);fill-opacity:1;" d="M 60.683594 17.21875 L 64.078125 12.460938 L 61.460938 12.460938 L 59.355469 15.566406 C 59.316406 15.5 58.96875 14.992188 58.3125 14.042969 C 57.660156 13.097656 57.296875 12.570312 57.230469 12.460938 L 54.492188 12.460938 L 57.945312 17.257812 L 54.433594 22.15625 L 57.074219 22.15625 C 57.125 22.0625 57.316406 21.773438 57.648438 21.289062 C 57.980469 20.804688 58.320312 20.300781 58.671875 19.777344 C 59.019531 19.253906 59.21875 18.964844 59.257812 18.910156 L 61.5 22.15625 L 64.199219 22.15625 Z M 60.683594 17.21875 "/>
<path style=" stroke:none;fill-rule:nonzero;fill:rgb(6.666667%,6.666667%,7.058824%);fill-opacity:1;" d="M 74.257812 17.199219 C 74.257812 15.660156 73.84375 14.4375 73.007812 13.527344 C 72.175781 12.617188 71.015625 12.164062 69.535156 12.164062 C 68.265625 12.164062 67.164062 12.640625 66.230469 13.597656 C 65.296875 14.550781 64.832031 15.773438 64.832031 17.257812 C 64.832031 18.839844 65.3125 20.101562 66.273438 21.042969 C 67.230469 21.984375 68.398438 22.457031 69.773438 22.457031 C 70.886719 22.457031 71.820312 22.167969 72.582031 21.589844 C 73.34375 21.011719 73.863281 20.277344 74.140625 19.390625 L 72.195312 18.773438 C 71.824219 19.902344 71.015625 20.464844 69.773438 20.464844 C 69.058594 20.464844 68.449219 20.226562 67.9375 19.746094 C 67.429688 19.269531 67.160156 18.667969 67.136719 17.9375 L 74.199219 17.9375 C 74.238281 17.855469 74.257812 17.609375 74.257812 17.199219 Z M 67.195312 16.242188 C 67.234375 15.675781 67.464844 15.171875 67.890625 14.742188 C 68.3125 14.308594 68.867188 14.09375 69.554688 14.09375 C 70.308594 14.09375 70.886719 14.300781 71.292969 14.710938 C 71.695312 15.121094 71.910156 15.632812 71.9375 16.242188 Z M 67.195312 16.242188 "/>
<path style=" stroke:none;fill-rule:nonzero;fill:rgb(6.666667%,6.666667%,7.058824%);fill-opacity:1;" d="M 76.460938 7.742188 L 76.460938 22.15625 L 78.765625 22.15625 L 78.765625 7.742188 Z M 76.460938 7.742188 "/>
<path style=" stroke:none;fill-rule:nonzero;fill:rgb(6.666667%,6.666667%,7.058824%);fill-opacity:1;" d="M 90.808594 16.105469 C 90.347656 15.496094 89.738281 15.089844 88.984375 14.890625 C 89.605469 14.664062 90.109375 14.285156 90.492188 13.746094 C 90.875 13.207031 91.070312 12.574219 91.070312 11.84375 C 91.070312 10.714844 90.683594 9.800781 89.917969 9.097656 C 89.148438 8.394531 88.105469 8.042969 86.78125 8.042969 L 81.9375 8.042969 L 81.9375 22.15625 L 87.140625 22.15625 C 88.433594 22.15625 89.488281 21.792969 90.292969 21.0625 C 91.101562 20.332031 91.503906 19.394531 91.503906 18.253906 C 91.503906 17.433594 91.273438 16.714844 90.808594 16.105469 Z M 84.300781 10.074219 L 86.40625 10.074219 C 87.121094 10.074219 87.679688 10.25 88.082031 10.601562 C 88.484375 10.953125 88.6875 11.433594 88.6875 12.042969 C 88.6875 12.652344 88.488281 13.117188 88.089844 13.476562 C 87.695312 13.835938 87.152344 14.015625 86.464844 14.015625 L 84.300781 14.015625 Z M 88.4375 19.578125 C 88.007812 19.945312 87.4375 20.125 86.722656 20.125 L 84.300781 20.125 L 84.300781 16.027344 L 86.800781 16.027344 C 87.515625 16.027344 88.074219 16.214844 88.476562 16.59375 C 88.882812 16.972656 89.082031 17.472656 89.082031 18.09375 C 89.082031 18.71875 88.867188 19.214844 88.4375 19.578125 Z M 88.4375 19.578125 "/>
<path style=" stroke:none;fill-rule:nonzero;fill:rgb(6.666667%,6.666667%,7.058824%);fill-opacity:1;" d="M 98.769531 12.34375 C 98.132812 12.34375 97.566406 12.492188 97.0625 12.789062 C 96.558594 13.089844 96.195312 13.496094 95.96875 14.015625 L 95.96875 12.460938 L 93.726562 12.460938 L 93.726562 22.15625 L 96.03125 22.15625 L 96.03125 17.539062 C 96.03125 15.640625 96.898438 14.691406 98.628906 14.691406 C 98.867188 14.691406 99.121094 14.710938 99.382812 14.75 L 99.382812 12.402344 C 99.183594 12.363281 98.980469 12.34375 98.769531 12.34375 Z M 98.769531 12.34375 "/>
<path style=" stroke:none;fill-rule:nonzero;fill:rgb(6.666667%,6.666667%,7.058824%);fill-opacity:1;" d="M 109.882812 17.199219 C 109.882812 15.660156 109.464844 14.4375 108.632812 13.527344 C 107.796875 12.617188 106.640625 12.164062 105.160156 12.164062 C 103.890625 12.164062 102.789062 12.640625 101.855469 13.597656 C 100.921875 14.550781 100.457031 15.773438 100.457031 17.257812 C 100.457031 18.839844 100.933594 20.101562 101.894531 21.042969 C 102.855469 21.984375 104.019531 22.457031 105.398438 22.457031 C 106.507812 22.457031 107.445312 22.167969 108.207031 21.589844 C 108.964844 21.011719 109.484375 20.277344 109.761719 19.390625 L 107.816406 18.773438 C 107.449219 19.902344 106.640625 20.464844 105.398438 20.464844 C 104.683594 20.464844 104.070312 20.226562 103.5625 19.746094 C 103.050781 19.269531 102.785156 18.667969 102.757812 17.9375 L 109.824219 17.9375 C 109.863281 17.855469 109.882812 17.609375 109.882812 17.199219 Z M 102.816406 16.242188 C 102.855469 15.675781 103.089844 15.171875 103.511719 14.742188 C 103.933594 14.308594 104.492188 14.09375 105.179688 14.09375 C 105.933594 14.09375 106.511719 14.300781 106.914062 14.710938 C 107.320312 15.121094 107.535156 15.632812 107.558594 16.242188 Z M 102.816406 16.242188 "/>
<path style=" stroke:none;fill-rule:nonzero;fill:rgb(6.666667%,6.666667%,7.058824%);fill-opacity:1;" d="M 120.757812 17.199219 C 120.757812 15.660156 120.339844 14.4375 119.507812 13.527344 C 118.671875 12.617188 117.515625 12.164062 116.035156 12.164062 C 114.765625 12.164062 113.664062 12.640625 112.730469 13.597656 C 111.796875 14.550781 111.332031 15.773438 111.332031 17.257812 C 111.332031 18.839844 111.808594 20.101562 112.769531 21.042969 C 113.730469 21.984375 114.894531 22.457031 116.273438 22.457031 C 117.382812 22.457031 118.320312 22.167969 119.082031 21.589844 C 119.839844 21.011719 120.359375 20.277344 120.636719 19.390625 L 118.695312 18.773438 C 118.324219 19.902344 117.515625 20.464844 116.273438 20.464844 C 115.558594 20.464844 114.945312 20.226562 114.4375 19.746094 C 113.925781 19.269531 113.660156 18.667969 113.632812 17.9375 L 120.699219 17.9375 C 120.738281 17.855469 120.757812 17.609375 120.757812 17.199219 Z M 113.691406 16.242188 C 113.730469 15.675781 113.964844 15.171875 114.386719 14.742188 C 114.808594 14.308594 115.367188 14.09375 116.054688 14.09375 C 116.808594 14.09375 117.386719 14.300781 117.789062 14.710938 C 118.195312 15.121094 118.410156 15.632812 118.4375 16.242188 Z M 113.691406 16.242188 "/>
<path style=" stroke:none;fill-rule:nonzero;fill:rgb(6.666667%,6.666667%,7.058824%);fill-opacity:1;" d="M 125.0625 20.125 L 130.023438 14.414062 L 130.023438 12.460938 L 122.324219 12.460938 L 122.324219 14.492188 L 127.128906 14.492188 L 122.226562 20.144531 L 122.226562 22.15625 L 130.125 22.15625 L 130.125 20.125 Z M 125.0625 20.125 "/>
<path style=" stroke:none;fill-rule:nonzero;fill:rgb(6.666667%,6.666667%,7.058824%);fill-opacity:1;" d="M 141 17.199219 C 141 15.660156 140.582031 14.4375 139.75 13.527344 C 138.914062 12.617188 137.757812 12.164062 136.277344 12.164062 C 135.007812 12.164062 133.90625 12.640625 132.972656 13.597656 C 132.039062 14.550781 131.574219 15.773438 131.574219 17.257812 C 131.574219 18.839844 132.050781 20.101562 133.011719 21.042969 C 133.972656 21.984375 135.136719 22.457031 136.515625 22.457031 C 137.625 22.457031 138.5625 22.167969 139.324219 21.589844 C 140.082031 21.011719 140.601562 20.277344 140.882812 19.390625 L 138.9375 18.773438 C 138.566406 19.902344 137.757812 20.464844 136.515625 20.464844 C 135.800781 20.464844 135.1875 20.226562 134.679688 19.746094 C 134.167969 19.269531 133.902344 18.667969 133.875 17.9375 L 140.941406 17.9375 C 140.980469 17.855469 141 17.609375 141 17.199219 Z M 133.933594 16.242188 C 133.972656 15.675781 134.207031 15.171875 134.628906 14.742188 C 135.050781 14.308594 135.609375 14.09375 136.296875 14.09375 C 137.050781 14.09375 137.628906 14.300781 138.03125 14.710938 C 138.4375 15.121094 138.652344 15.632812 138.679688 16.242188 Z M 133.933594 16.242188 "/>
<path style=" stroke:none;fill-rule:nonzero;fill:rgb(6.666667%,6.666667%,7.058824%);fill-opacity:1;" d="M 14.503906 12.261719 C 14.503906 12.925781 14.285156 13.453125 13.855469 13.84375 C 13.425781 14.238281 12.835938 14.433594 12.082031 14.433594 L 9.601562 14.433594 L 9.601562 10.054688 L 12.082031 10.054688 C 12.835938 10.054688 13.425781 10.253906 13.855469 10.652344 C 14.285156 11.046875 14.503906 11.585938 14.503906 12.261719 Z M 14.503906 12.261719 "/>
<path style=" stroke:none;fill-rule:nonzero;fill:rgb(6.666667%,6.666667%,7.058824%);fill-opacity:1;" d="M 21.691406 11.945312 C 21.691406 12.542969 21.492188 13.019531 21.09375 13.378906 C 20.695312 13.734375 20.15625 13.914062 19.46875 13.914062 L 17.304688 13.914062 L 17.304688 9.972656 L 19.40625 9.972656 C 20.121094 9.972656 20.679688 10.148438 21.085938 10.5 C 21.488281 10.851562 21.691406 11.332031 21.691406 11.945312 Z M 21.691406 11.945312 "/>
<path style=" stroke:none;fill-rule:nonzero;fill:rgb(6.666667%,6.666667%,7.058824%);fill-opacity:1;" d="M 22.085938 17.996094 C 22.085938 18.621094 21.871094 19.113281 21.441406 19.480469 C 21.011719 19.84375 20.4375 20.027344 19.726562 20.027344 L 17.304688 20.027344 L 17.304688 15.925781 L 19.804688 15.925781 C 20.519531 15.925781 21.078125 16.113281 21.480469 16.492188 C 21.886719 16.871094 22.085938 17.371094 22.085938 17.996094 Z M 22.085938 17.996094 "/>
<path style=" stroke:none;fill-rule:nonzero;fill:rgb(6.666667%,6.666667%,7.058824%);fill-opacity:1;" d="M 23.742188 0 L 6.167969 0 C 2.761719 0 0 2.769531 0 6.1875 L 0 23.8125 C 0 27.230469 2.761719 30 6.167969 30 L 29.910156 30 L 29.910156 6.1875 C 29.910156 2.769531 27.148438 0 23.742188 0 Z M 23.296875 20.960938 C 22.488281 21.691406 21.4375 22.058594 20.140625 22.058594 L 14.941406 22.058594 L 14.941406 15.910156 C 14.242188 16.332031 13.40625 16.542969 12.4375 16.542969 L 9.601562 16.542969 L 9.601562 22.058594 L 7.21875 22.058594 L 7.21875 7.941406 L 19.785156 7.941406 C 21.109375 7.941406 22.152344 8.296875 22.921875 8.996094 C 23.6875 9.703125 24.070312 10.617188 24.070312 11.746094 C 24.070312 12.476562 23.878906 13.109375 23.496094 13.644531 C 23.113281 14.183594 22.609375 14.566406 21.988281 14.789062 C 22.742188 14.988281 23.351562 15.394531 23.8125 16.003906 C 24.277344 16.617188 24.507812 17.332031 24.507812 18.15625 C 24.507812 19.296875 24.105469 20.230469 23.296875 20.960938 Z M 23.296875 20.960938 "/>
</g>
</svg>
